# Blender 3.5.1
# www.blender.org
mtllib blastdoor.mtl
o Cube.004
v -1.000000 0.000000 10.100000
v -1.000000 3.000000 10.100000
v -1.000000 0.000000 9.900000
v -1.000000 3.000000 9.900000
v 1.000000 0.000000 10.100000
v 1.000000 3.000000 10.100000
v 1.000000 0.000000 9.900000
v 1.000000 3.000000 9.900000
vn -1.0000 -0.0000 -0.0000
vn -0.0000 -0.0000 -1.0000
vn 1.0000 -0.0000 -0.0000
vn -0.0000 -0.0000 1.0000
vn -0.0000 -1.0000 -0.0000
vn -0.0000 1.0000 -0.0000
vt -0.750000 0.812500
vt 1.750000 0.812500
vt 1.125000 1.437500
vt -0.750000 0.187500
vt 1.750000 0.187500
vt 1.125000 -0.437500
vt -0.125000 0.812500
vt 0.500000 1.437500
vt -0.125000 0.187500
vt 0.500000 -0.437500
vt 1.125000 0.812500
vt 1.125000 0.187500
vt 0.500000 0.812500
vt 0.500000 0.187500
s 0
usemtl Blastdoor
f 1/1/1 2/4/1 4/9/1 3/7/1
f 3/7/2 4/9/2 8/14/2 7/13/2
f 7/13/3 8/14/3 6/12/3 5/11/3
f 5/11/4 6/12/4 2/5/4 1/2/4
f 3/8/5 7/13/5 5/11/5 1/3/5
f 8/14/6 4/10/6 2/6/6 6/12/6
